<?xml version="1.0" encoding="utf-8"?>
<!-- Generator: Adobe Illustrator 22.0.1, SVG Export Plug-In . SVG Version: 6.00 Build 0)  -->
<svg version="1.1" baseProfile="basic" id="Layer_1"
	 xmlns="http://www.w3.org/2000/svg" xmlns:xlink="http://www.w3.org/1999/xlink" x="0px" y="0px" viewBox="0 0 1600 1200"
	 xml:space="preserve">
<g>
	<g>
		<path fill="#780D15" d="M767.922,589.061l-24.228,57.224h-15.228l-24.343-57.224h15.344l7.845,18.805l8.768,23.997l8.653-23.766
			l7.845-19.036H767.922z"/>
		<path fill="#780D15" d="M786.73,622.634c0.923,7.038,7.038,12.114,16.959,12.114c5.192,0,11.999-1.961,15.229-5.307l8.998,8.884
			c-5.998,6.23-15.805,9.229-24.457,9.229c-19.613,0-31.266-12.114-31.266-30.342c0-17.306,11.768-29.766,30.227-29.766
			c19.036,0,30.92,11.768,28.727,35.188H786.73z M817.649,610.982c-0.923-7.384-6.692-11.077-14.767-11.077
			c-7.614,0-13.844,3.693-15.921,11.077H817.649z"/>
		<path fill="#780D15" d="M883.874,646.054v-29.766c0-8.652-4.731-15.228-13.729-15.228c-8.653,0-14.536,7.269-14.536,15.921v29.074
			h-13.96v-56.993h12.575l0.923,7.73c5.768-5.653,11.538-8.537,18.69-8.537c13.383,0,24.111,10.037,24.111,27.919v29.881H883.874z"
			/>
		<path fill="#780D15" d="M917.219,565.295v34.381c4.615-8.192,12.576-11.307,20.536-11.422c15.922,0,23.881,10.267,23.881,25.151
			v32.649h-5.537v-32.649c0-11.768-5.538-19.729-18.344-19.729c-11.998,0-20.305,9.229-20.305,21.113v31.265h-5.653v-80.759H917.219
			z"/>
		<path fill="#780D15" d="M1021.172,646.054v-10.268c-4.384,7.846-12.345,11.076-20.306,11.192
			c-15.228,0-25.727-9.345-25.727-25.151v-32.88h5.652v32.764c0,12.922,7.961,19.845,20.306,19.729
			c11.768-0.115,19.958-8.999,19.958-20.767v-31.726h5.653v57.108H1021.172z"/>
		<path fill="#780D15" d="M1047.132,565.295v36.226c4.615-9.229,13.845-13.383,23.651-13.383c15.921,0,28.611,10.614,28.611,29.42
			c0,18.92-12.575,29.42-28.496,29.42c-9.691,0-19.035-4.846-23.766-13.498v12.575h-5.537v-80.759H1047.132z M1047.248,617.443
			c0,14.19,9.921,23.996,23.304,23.996c12.806,0,23.305-8.076,23.305-23.881c0-16.037-10.5-23.996-23.305-23.996
			C1057.4,593.561,1047.248,603.252,1047.248,617.443z"/>
	</g>
	<g>
		<g>
			<polygon fill="#E4C3A4" points="500.605,505.933 516.411,535.504 601.829,541.112 656.109,529.054 			"/>
			<polygon fill="#D4AD86" points="515.391,557.428 702.506,519.699 672.934,577.822 538.844,604.844 			"/>
			<polygon fill="#B88A66" points="586.677,595.204 656.109,595.204 627.558,655.319 563.317,642.572 544.628,603.678 			"/>
			<polygon fill="#965C46" points="600.369,649.924 577.083,655.319 596.305,694.067 620.398,653.898 			"/>
			<polygon opacity="0.16" fill="#231F20" points="656.109,529.054 596.305,541.112 630.408,525.232 			"/>
			<polygon opacity="0.16" fill="#231F20" points="544.628,603.678 586.677,595.204 550.311,615.505 			"/>
			<polygon opacity="0.16" fill="#231F20" points="600.369,649.924 620.398,653.898 614.158,664.303 			"/>
		</g>
	</g>
</g>
</svg>
